<svg width="16" height="16" viewBox="0 0 16 16" fill="none" xmlns="http://www.w3.org/2000/svg">
<path d="M3.33329 8.66666H11.24L8.81996 11.5733C8.76393 11.6407 8.72172 11.7185 8.69576 11.8023C8.66979 11.886 8.66056 11.974 8.66861 12.0613C8.68487 12.2376 8.77048 12.4002 8.90663 12.5133C9.04277 12.6265 9.21829 12.6809 9.39458 12.6647C9.57086 12.6484 9.73347 12.5628 9.84663 12.4267L13.18 8.42666C13.2024 8.39485 13.2224 8.36142 13.24 8.32666C13.24 8.29333 13.2733 8.27333 13.2866 8.24C13.3168 8.16356 13.3327 8.08219 13.3333 8C13.3327 7.9178 13.3168 7.83644 13.2866 7.76C13.2866 7.72666 13.2533 7.70666 13.24 7.67333C13.2224 7.63857 13.2024 7.60515 13.18 7.57333L9.84663 3.57333C9.78394 3.49807 9.70545 3.43755 9.61673 3.39607C9.52801 3.35459 9.43123 3.33317 9.33329 3.33333C9.17752 3.33303 9.02657 3.38728 8.90663 3.48666C8.83912 3.54263 8.78332 3.61136 8.74242 3.68893C8.70152 3.76649 8.67632 3.85136 8.66827 3.93868C8.66022 4.026 8.66947 4.11405 8.6955 4.19778C8.72153 4.28152 8.76382 4.3593 8.81996 4.42666L11.24 7.33333H3.33329C3.15648 7.33333 2.98691 7.40357 2.86189 7.52859C2.73686 7.65362 2.66663 7.82319 2.66663 8C2.66663 8.17681 2.73686 8.34638 2.86189 8.4714C2.98691 8.59642 3.15648 8.66666 3.33329 8.66666Z" fill="#333333"/>
</svg>
